name C:\Users\tom_v\MusculoskeletalSpecialization_revisited\Results\Case_19\motion.mot
datacolumns 32
datarows 13
range 0.00000000 0.06722564
endheader 
time	pelvis_tilt	pelvis_list	pelvis_rotation	pelvis_tx	pelvis_ty	pelvis_tz	hip_flexion_r	hip_adduction_r	hip_rotation_r	knee_angle_r	ankle_angle_r	subtalar_angle_r	mtp_angle_r	hip_flexion_l	hip_adduction_l	hip_rotation_l	knee_angle_l	ankle_angle_l	subtalar_angle_l	mtp_angle_l	lumbar_extension	lumbar_bending	lumbar_rotation	arm_flex_r	arm_add_r	arm_rot_r	elbow_flex_r	arm_flex_l	arm_add_l	arm_rot_l	elbow_flex_l	
          0.00000000	        -11.58590264	         -2.50028395	          0.77288826	          0.00000000	          0.89423268	          0.00002747	         42.99525716	          7.59517581	          4.63672270	        -37.95241170	          4.69759833	         -6.18204986	          0.41148968	          1.87666277	         -2.45295678	          2.48766241	        -50.86699045	        -12.24778740	         16.50817395	         18.73526754	         -0.65217030	          4.60732564	         -3.77621236	         -7.43604596	         -6.31532272	          2.54946288	         66.53598980	         13.44262258	         -0.71926730	         18.55753556	          3.86909258	
          0.00560214	        -11.52468467	         -2.42130480	          0.87588005	          0.01955540	          0.89135593	          0.00039580	         42.11947076	          7.91982752	          5.24715619	        -39.26580568	          7.15896951	         -6.63017002	          1.35613188	          2.99530119	         -2.49622758	          2.24753346	        -53.02190600	        -11.16259710	         16.41847736	         17.41821013	         -0.52555961	          4.51857732	         -3.59629508	         -6.82029202	         -6.25669471	          3.05159021	         64.33332963	         12.92068959	         -0.96628185	         18.06940374	          5.26775575	
          0.01120427	        -11.47104155	         -2.34895258	          0.96825652	          0.03893612	          0.88855426	          0.00076445	         41.13356802	          8.23812052	          5.82501481	        -40.37195850	          9.58995807	         -7.06547653	          2.45315701	          4.22598771	         -2.53059541	          2.01036059	        -55.21328247	        -10.05244062	         16.24935835	         16.18925156	         -0.41472179	          4.43363876	         -3.39816645	         -6.10470503	         -6.18779943	          3.60583278	         61.93630106	         12.32823086	         -1.24926357	         17.44362112	          6.95177229	
          0.01680641	        -11.42645234	         -2.28074615	          1.04613538	          0.05806016	          0.88593694	          0.00114409	         40.11547955	          8.55236444	          6.36730602	        -41.35768240	         11.86674851	         -7.50198953	          3.55044062	          5.56961325	         -2.54831915	          1.78589832	        -57.41899848	         -8.93845132	         16.00348646	         15.04449970	         -0.33116951	          4.34765373	         -3.18461769	         -5.26479215	         -6.10310095	          4.22498033	         59.31832062	         11.66859857	         -1.56640574	         16.68234287	          8.92936365	
          0.02240855	        -11.39124510	         -2.21410165	          1.10849777	          0.07690506	          0.88357368	          0.00153551	         39.10998570	          8.85727493	          6.86669129	        -42.28399373	         13.89903876	         -7.91874349	          4.65125001	          7.01568709	         -2.54654853	          1.57304907	        -59.60638634	         -7.82921193	         15.68591374	         13.97608257	         -0.27843868	          4.25678270	         -2.95803993	         -4.29322039	         -5.99731906	          4.91463945	         56.46929094	         10.94112333	         -1.91139237	         15.79999602	         11.19792072	
          0.02801068	        -11.36482267	         -2.14034133	          1.15704994	          0.09549014	          0.88150448	          0.00192881	         38.11899200	          9.13258707	          7.31024893	        -43.14519413	         15.60104303	         -8.30033043	          5.82850035	          8.54698050	         -2.51640095	          1.36851403	        -61.73966641	         -6.72339448	         15.30211305	         12.97908044	         -0.25482409	          4.15100049	         -2.72176540	         -3.19500274	         -5.86429653	          5.67534851	         53.39165029	         10.14331633	         -2.27615352	         14.81832494	         13.74548566	
          0.03361282	        -11.34683045	         -2.05427238	          1.19105395	          0.11384592	          0.87975393	          0.00231665	         37.12757293	          9.36355850	          7.69345497	        -43.91431830	         16.94260932	         -8.63764602	          7.14934507	         10.14720720	         -2.45387658	          1.16510464	        -63.78998923	         -5.62233550	         14.85827005	         12.05012930	         -0.25683781	          4.02504916	         -2.47634923	         -1.98067682	         -5.69880374	          6.50516141	         50.09716738	          9.27495062	         -2.65082072	         13.76247935	         16.55083782	
          0.03921496	        -11.33691770	         -1.95348408	          1.21012744	          0.13200720	          0.87833368	          0.00269281	         36.11626876	          9.54095045	          8.02007484	        -44.57014504	         17.99286357	         -8.90632396	          8.60460519	         11.80190690	         -2.35871273	          0.95617266	        -65.73366895	         -4.53109960	         14.36078193	         11.18506604	         -0.28039854	          3.87704609	         -2.22255935	         -0.66506205	         -5.49600522	          7.39918513	         46.60651962	          8.33949911	         -3.02546552	         12.66067145	         19.58351718	
          0.04481709	        -11.33460670	         -1.83628408	          1.21482318	          0.15000807	          0.87724466	          0.00305249	         35.06871559	          9.65799583	          8.29585531	        -45.09593304	         18.81700290	         -9.08858311	         10.17798760	         13.49837990	         -2.23176146	          0.73711360	        -67.55226395	         -3.45311919	         13.81597730	         10.37947277	         -0.32172285	          3.70561532	         -1.96168207	          0.73330270	         -5.25122091	          8.34843881	         42.94938670	          7.34475000	         -3.39164830	         11.54213081	         22.80547665	
          0.05041923	        -11.33935396	         -1.70108248	          1.20622993	          0.16787768	          0.87648078	          0.00339179	         33.97599379	          9.70964161	          8.52515238	        -45.48350525	         19.45619056	         -9.17600700	         11.85785008	         15.22596725	         -2.07362105	          0.50586910	        -69.23343544	         -2.39049136	         13.23013742	          9.62930282	         -0.37784696	          3.50929548	         -1.69497878	          2.19281564	         -4.96075222	          9.33915755	         39.16461703	          6.30248355	         -3.74290412	         10.43386344	         26.17370560	
          0.05602137	        -11.35069530	         -1.54665766	          1.18553392	          0.18564066	          0.87603187	          0.00370777	         32.83535744	          9.69301545	          8.71089358	        -45.73184017	         19.93297071	         -9.16866643	         13.63665313	         16.97584689	         -1.88488929	          0.26180142	        -70.76960559	         -1.34497570	         12.60973711	          8.93068308	         -0.44643883	          3.28693399	         -1.42329546	          3.68903768	         -4.62288339	         10.35211113	         35.30014447	          5.22697194	         -4.07471801	          9.35794184	         29.64334604	
          0.06162350	        -11.36818569	         -1.37237123	          1.15413161	          0.20331860	          0.87588555	          0.00399809	         31.64755480	          9.60749683	          8.85520118	        -45.84399624	         20.25899039	         -9.07331163	         15.50818004	         18.74058399	         -1.66653314	          0.00471769	        -72.15659833	         -0.31873171	         11.96060779	          8.27983804	         -0.52564780	          3.03794191	         -1.14730786	          5.19518795	         -4.23875656	         11.36215221	         31.41223708	          4.13339916	         -4.38416395	          8.32992019	         33.17021494	
          0.06722564	        -11.39139642	         -1.17943861	          1.11370710	          0.22093218	          0.87602789	          0.00426137	         30.41436480	          9.45593986	          8.96133178	        -45.82423190	         20.44149175	         -8.89931159	         17.46306058	         20.51380310	         -1.42126228	         -0.26388605	        -73.39310787	          0.68651471	         11.28952083	          7.67296414	         -0.61375234	          2.76364194	         -0.86774244	          6.68283286	         -3.81328507	         12.33826948	         27.56427019	          3.03637344	         -4.66931262	          7.35887594	         36.71287111	
